# Blender v2.93.1 OBJ File: ''
# www.blender.org
mtllib ring_half2.mtl
o Torus
v 0.000000 0.000000 1.250000
v 0.000000 -0.014449 1.216506
v 0.158786 -0.014449 1.206099
v 0.163158 0.000000 1.239306
v 0.000000 -0.025027 1.125000
v 0.146842 -0.025027 1.115376
v 0.000000 0.025027 1.125000
v 0.000000 0.014449 1.216506
v 0.158786 0.014449 1.206099
v 0.146842 0.025027 1.115376
v 0.314855 -0.014449 1.175055
v 0.323524 0.000000 1.207407
v 0.291171 -0.025027 1.086667
v 0.314855 0.014449 1.175055
v 0.291171 0.025027 1.086667
v 0.465537 -0.014449 1.123905
v 0.478354 0.000000 1.154850
v 0.430519 -0.025027 1.039365
v 0.465537 0.014449 1.123905
v 0.430519 0.025027 1.039365
v 0.608253 -0.014449 1.053525
v 0.625000 0.000000 1.082532
v 0.562500 -0.025027 0.974279
v 0.608253 0.014449 1.053525
v 0.562500 0.025027 0.974279
v 0.740562 -0.014449 0.965119
v 0.760952 0.000000 0.991692
v 0.684857 -0.025027 0.892523
v 0.740562 0.014449 0.965119
v 0.684857 0.025027 0.892523
v 0.860200 -0.014449 0.860200
v 0.883884 0.000000 0.883883
v 0.795495 -0.025027 0.795495
v 0.860200 0.014449 0.860200
v 0.795495 0.025027 0.795495
v 0.965119 -0.014449 0.740562
v 0.991691 0.000000 0.760952
v 0.892522 -0.025027 0.684857
v 0.965119 0.014449 0.740562
v 0.892522 0.025027 0.684857
v 1.053525 -0.014449 0.608253
v 1.082532 0.000000 0.625000
v 0.974279 -0.025027 0.562500
v 1.053525 0.014449 0.608253
v 0.974279 0.025027 0.562500
v 1.123905 -0.014449 0.465537
v 1.154849 0.000000 0.478355
v 1.039364 -0.025027 0.430519
v 1.123905 0.014449 0.465537
v 1.039364 0.025027 0.430519
v 1.175055 -0.014449 0.314855
v 1.207407 0.000000 0.323524
v 1.086666 -0.025027 0.291171
v 1.175055 0.014449 0.314855
v 1.086666 0.025027 0.291171
v 1.206099 -0.014449 0.158786
v 1.239306 0.000000 0.163158
v 1.115376 -0.025027 0.146842
v 1.206099 0.014449 0.158786
v 1.115376 0.025027 0.146842
v 1.216506 -0.014449 -0.000000
v 1.250000 0.000000 -0.000000
v 1.125000 -0.025027 -0.000000
v 1.216506 0.014449 -0.000000
v 1.125000 0.025027 -0.000000
v 1.206099 -0.014449 -0.158786
v 1.239306 0.000000 -0.163158
v 1.115375 -0.025027 -0.146842
v 1.206099 0.014449 -0.158786
v 1.115375 0.025027 -0.146842
v 1.175055 -0.014449 -0.314855
v 1.207407 0.000000 -0.323524
v 1.086667 -0.025027 -0.291171
v 1.175055 0.014449 -0.314855
v 1.086667 0.025027 -0.291171
v 1.123905 -0.014449 -0.465537
v 1.154849 0.000000 -0.478354
v 1.039364 -0.025027 -0.430519
v 1.123905 0.014449 -0.465537
v 1.039364 0.025027 -0.430519
v 1.053525 -0.014449 -0.608253
v 1.082532 0.000000 -0.625000
v 0.974279 -0.025027 -0.562500
v 1.053525 0.014449 -0.608253
v 0.974279 0.025027 -0.562500
v 0.965119 -0.014449 -0.740562
v 0.991692 0.000000 -0.760952
v 0.892522 -0.025027 -0.684857
v 0.965119 0.014449 -0.740562
v 0.892522 0.025027 -0.684857
v 0.860200 -0.014449 -0.860200
v 0.883883 0.000000 -0.883884
v 0.795495 -0.025027 -0.795495
v 0.860200 0.014449 -0.860200
v 0.795495 0.025027 -0.795495
v 0.740562 -0.014449 -0.965119
v 0.760952 0.000000 -0.991692
v 0.684857 -0.025027 -0.892523
v 0.740562 0.014449 -0.965119
v 0.684857 0.025027 -0.892523
v 0.608253 -0.014449 -1.053525
v 0.625000 0.000000 -1.082532
v 0.562500 -0.025027 -0.974279
v 0.608253 0.014449 -1.053525
v 0.562500 0.025027 -0.974279
v 0.465537 -0.014449 -1.123905
v 0.478354 0.000000 -1.154849
v 0.430519 -0.025027 -1.039364
v 0.465537 0.014449 -1.123905
v 0.430519 0.025027 -1.039364
v 0.314855 -0.014449 -1.175055
v 0.323524 0.000000 -1.207407
v 0.291171 -0.025027 -1.086667
v 0.314855 0.014449 -1.175055
v 0.291171 0.025027 -1.086667
v 0.158786 -0.014449 -1.206099
v 0.163158 0.000000 -1.239306
v 0.146842 -0.025027 -1.115376
v 0.158786 0.014449 -1.206099
v 0.146842 0.025027 -1.115376
v -0.000000 -0.014449 -1.216506
v -0.000000 0.000000 -1.250000
v -0.000000 -0.025027 -1.125000
v -0.000000 0.014449 -1.216506
v -0.000000 0.025027 -1.125000
vn 0.0260 -0.9179 0.3960
vn 0.0075 -0.9934 0.1148
vn 0.0075 0.9934 0.1148
vn 0.0260 0.9179 0.3960
vn 0.0774 -0.9179 0.3892
vn 0.0225 -0.9934 0.1129
vn 0.0225 0.9934 0.1129
vn 0.0774 0.9179 0.3892
vn 0.1276 -0.9179 0.3758
vn 0.0370 -0.9934 0.1090
vn 0.0370 0.9934 0.1090
vn 0.1276 0.9179 0.3758
vn 0.1755 -0.9179 0.3559
vn 0.0509 -0.9934 0.1032
vn 0.0509 0.9934 0.1032
vn 0.1755 0.9179 0.3559
vn 0.2205 -0.9179 0.3299
vn 0.0639 -0.9934 0.0957
vn 0.0639 0.9934 0.0957
vn 0.2205 0.9179 0.3299
vn 0.2616 -0.9179 0.2983
vn 0.0759 -0.9934 0.0865
vn 0.0759 0.9934 0.0865
vn 0.2616 0.9179 0.2983
vn 0.2984 -0.9179 0.2616
vn 0.0865 -0.9934 0.0759
vn 0.0865 0.9934 0.0759
vn 0.2983 0.9179 0.2616
vn 0.3299 -0.9179 0.2205
vn 0.0957 -0.9934 0.0639
vn 0.0957 0.9934 0.0639
vn 0.3299 0.9179 0.2205
vn 0.3559 -0.9179 0.1755
vn 0.1032 -0.9934 0.0509
vn 0.1032 0.9934 0.0509
vn 0.3559 0.9179 0.1755
vn 0.3758 -0.9179 0.1276
vn 0.1090 -0.9934 0.0370
vn 0.1090 0.9934 0.0370
vn 0.3758 0.9179 0.1276
vn 0.3892 -0.9179 0.0774
vn 0.1129 -0.9934 0.0225
vn 0.1129 0.9934 0.0225
vn 0.3892 0.9179 0.0774
vn 0.3960 -0.9179 0.0260
vn 0.1148 -0.9934 0.0075
vn 0.1148 0.9934 0.0075
vn 0.3960 0.9179 0.0260
vn 0.3960 -0.9179 -0.0260
vn 0.1148 -0.9934 -0.0075
vn 0.1148 0.9934 -0.0075
vn 0.3960 0.9179 -0.0260
vn 0.3892 -0.9179 -0.0774
vn 0.1129 -0.9934 -0.0225
vn 0.1129 0.9934 -0.0225
vn 0.3892 0.9179 -0.0774
vn 0.3758 -0.9179 -0.1276
vn 0.1090 -0.9934 -0.0370
vn 0.1090 0.9934 -0.0370
vn 0.3758 0.9179 -0.1276
vn 0.3559 -0.9179 -0.1755
vn 0.1032 -0.9934 -0.0509
vn 0.1032 0.9934 -0.0509
vn 0.3559 0.9179 -0.1755
vn 0.3299 -0.9179 -0.2205
vn 0.0957 -0.9934 -0.0639
vn 0.0957 0.9934 -0.0639
vn 0.3299 0.9179 -0.2205
vn 0.2983 -0.9179 -0.2616
vn 0.0865 -0.9934 -0.0759
vn 0.0865 0.9934 -0.0759
vn 0.2983 0.9179 -0.2616
vn 0.2616 -0.9179 -0.2983
vn 0.0759 -0.9934 -0.0865
vn 0.0759 0.9934 -0.0865
vn 0.2616 0.9179 -0.2983
vn 0.2205 -0.9179 -0.3299
vn 0.0639 -0.9934 -0.0957
vn 0.0639 0.9934 -0.0957
vn 0.2205 0.9179 -0.3299
vn 0.1755 -0.9179 -0.3559
vn 0.0509 -0.9934 -0.1032
vn 0.0509 0.9934 -0.1032
vn 0.1755 0.9179 -0.3559
vn 0.1276 -0.9179 -0.3758
vn 0.0370 -0.9934 -0.1090
vn 0.0370 0.9934 -0.1090
vn 0.1276 0.9179 -0.3758
vn 0.0774 -0.9179 -0.3892
vn 0.0225 -0.9934 -0.1129
vn 0.0225 0.9934 -0.1129
vn 0.0774 0.9179 -0.3892
vn 0.0260 -0.9179 -0.3960
vn 0.0075 -0.9934 -0.1148
vn 0.0075 0.9934 -0.1148
vn 0.0260 0.9179 -0.3960
vn -1.0000 -0.0000 0.0000
vn -0.1951 0.0000 0.9808
vn -0.3214 -0.0000 0.9469
vn -0.0654 -0.0000 0.9979
vn -0.0654 -0.0000 -0.9979
vn -0.1951 0.0000 -0.9808
vn -0.3214 0.0000 -0.9469
vn -0.4423 0.0000 -0.8969
vn -0.5556 0.0000 -0.8315
vn -0.7518 0.0000 -0.6593
vn -0.6594 0.0000 -0.7518
vn -0.8315 0.0000 -0.5556
vn -0.8969 0.0000 -0.4423
vn -0.9469 0.0000 -0.3214
vn -0.9808 0.0000 -0.1951
vn -0.9979 0.0000 -0.0654
vn -0.4423 0.0000 0.8969
vn -0.5556 0.0000 0.8315
vn -0.6594 0.0000 0.7518
vn -0.7518 0.0000 0.6593
vn -0.8315 0.0000 0.5556
vn -0.8969 0.0000 0.4423
vn -0.9469 0.0000 0.3214
vn -0.9808 0.0000 0.1951
vn -0.9979 0.0000 0.0654
usemtl None
s 1
f 1//1 2//1 3//1 4//1
f 2//2 5//2 6//2 3//2
f 7//3 8//3 9//3 10//3
f 1//4 4//4 9//4 8//4
f 4//5 3//5 11//5 12//5
f 3//6 6//6 13//6 11//6
f 10//7 9//7 14//7 15//7
f 9//8 4//8 12//8 14//8
f 12//9 11//9 16//9 17//9
f 11//10 13//10 18//10 16//10
f 15//11 14//11 19//11 20//11
f 14//12 12//12 17//12 19//12
f 17//13 16//13 21//13 22//13
f 16//14 18//14 23//14 21//14
f 20//15 19//15 24//15 25//15
f 19//16 17//16 22//16 24//16
f 22//17 21//17 26//17 27//17
f 21//18 23//18 28//18 26//18
f 25//19 24//19 29//19 30//19
f 24//20 22//20 27//20 29//20
f 27//21 26//21 31//21 32//21
f 26//22 28//22 33//22 31//22
f 30//23 29//23 34//23 35//23
f 29//24 27//24 32//24 34//24
f 32//25 31//25 36//25 37//25
f 31//26 33//26 38//26 36//26
f 35//27 34//27 39//27 40//27
f 34//28 32//28 37//28 39//28
f 37//29 36//29 41//29 42//29
f 36//30 38//30 43//30 41//30
f 40//31 39//31 44//31 45//31
f 39//32 37//32 42//32 44//32
f 42//33 41//33 46//33 47//33
f 41//34 43//34 48//34 46//34
f 45//35 44//35 49//35 50//35
f 44//36 42//36 47//36 49//36
f 47//37 46//37 51//37 52//37
f 46//38 48//38 53//38 51//38
f 50//39 49//39 54//39 55//39
f 49//40 47//40 52//40 54//40
f 52//41 51//41 56//41 57//41
f 51//42 53//42 58//42 56//42
f 55//43 54//43 59//43 60//43
f 54//44 52//44 57//44 59//44
f 57//45 56//45 61//45 62//45
f 56//46 58//46 63//46 61//46
f 60//47 59//47 64//47 65//47
f 59//48 57//48 62//48 64//48
f 62//49 61//49 66//49 67//49
f 61//50 63//50 68//50 66//50
f 65//51 64//51 69//51 70//51
f 64//52 62//52 67//52 69//52
f 67//53 66//53 71//53 72//53
f 66//54 68//54 73//54 71//54
f 70//55 69//55 74//55 75//55
f 69//56 67//56 72//56 74//56
f 72//57 71//57 76//57 77//57
f 71//58 73//58 78//58 76//58
f 75//59 74//59 79//59 80//59
f 74//60 72//60 77//60 79//60
f 77//61 76//61 81//61 82//61
f 76//62 78//62 83//62 81//62
f 80//63 79//63 84//63 85//63
f 79//64 77//64 82//64 84//64
f 82//65 81//65 86//65 87//65
f 81//66 83//66 88//66 86//66
f 85//67 84//67 89//67 90//67
f 84//68 82//68 87//68 89//68
f 87//69 86//69 91//69 92//69
f 86//70 88//70 93//70 91//70
f 90//71 89//71 94//71 95//71
f 89//72 87//72 92//72 94//72
f 92//73 91//73 96//73 97//73
f 91//74 93//74 98//74 96//74
f 95//75 94//75 99//75 100//75
f 94//76 92//76 97//76 99//76
f 97//77 96//77 101//77 102//77
f 96//78 98//78 103//78 101//78
f 100//79 99//79 104//79 105//79
f 99//80 97//80 102//80 104//80
f 102//81 101//81 106//81 107//81
f 101//82 103//82 108//82 106//82
f 105//83 104//83 109//83 110//83
f 104//84 102//84 107//84 109//84
f 107//85 106//85 111//85 112//85
f 106//86 108//86 113//86 111//86
f 110//87 109//87 114//87 115//87
f 109//88 107//88 112//88 114//88
f 112//89 111//89 116//89 117//89
f 111//90 113//90 118//90 116//90
f 115//91 114//91 119//91 120//91
f 114//92 112//92 117//92 119//92
f 117//93 116//93 121//93 122//93
f 116//94 118//94 123//94 121//94
f 120//95 119//95 124//95 125//95
f 119//96 117//96 122//96 124//96
f 2//97 1//97 8//97
f 7//97 5//97 2//97 8//97
f 122//97 121//97 124//97
f 123//97 125//97 124//97 121//97
f 118//98 113//98 115//98 120//98
f 113//99 108//99 110//99 115//99
f 125//100 123//100 118//100 120//100
f 10//101 6//101 5//101 7//101
f 13//102 6//102 10//102 15//102
f 20//103 18//103 13//103 15//103
f 25//104 23//104 18//104 20//104
f 30//105 28//105 23//105 25//105
f 38//106 33//106 35//106 40//106
f 33//107 28//107 30//107 35//107
f 45//108 43//108 38//108 40//108
f 50//109 48//109 43//109 45//109
f 53//110 48//110 50//110 55//110
f 58//111 53//111 55//111 60//111
f 63//112 58//112 60//112 65//112
f 110//113 108//113 103//113 105//113
f 103//114 98//114 100//114 105//114
f 100//115 98//115 93//115 95//115
f 95//116 93//116 88//116 90//116
f 88//117 83//117 85//117 90//117
f 83//118 78//118 80//118 85//118
f 78//119 73//119 75//119 80//119
f 75//120 73//120 68//120 70//120
f 70//121 68//121 63//121 65//121

